<mxfile host="Electron" agent="Mozilla/5.0 (Windows NT 10.0; Win64; x64) AppleWebKit/537.36 (KHTML, like Gecko) draw.io/24.7.8 Chrome/128.0.6613.36 Electron/32.0.1 Safari/537.36" version="24.7.8">
  <diagram name="Page-1" id="B-cprfjrN_0aOi5tmhHr">
    <mxGraphModel dx="1907" dy="2511" grid="1" gridSize="10" guides="1" tooltips="1" connect="1" arrows="1" fold="1" page="1" pageScale="1" pageWidth="850" pageHeight="1100" math="0" shadow="0">
      <root>
        <mxCell id="0" />
        <mxCell id="1" parent="0" />
        <mxCell id="CYZ0r650wTVT2i2RkoJH-3" value="" style="edgeStyle=orthogonalEdgeStyle;rounded=0;orthogonalLoop=1;jettySize=auto;html=1;" edge="1" parent="1" source="CYZ0r650wTVT2i2RkoJH-1" target="CYZ0r650wTVT2i2RkoJH-2">
          <mxGeometry relative="1" as="geometry" />
        </mxCell>
        <mxCell id="CYZ0r650wTVT2i2RkoJH-5" value="" style="edgeStyle=orthogonalEdgeStyle;rounded=0;orthogonalLoop=1;jettySize=auto;html=1;" edge="1" parent="1" source="CYZ0r650wTVT2i2RkoJH-1" target="CYZ0r650wTVT2i2RkoJH-4">
          <mxGeometry relative="1" as="geometry" />
        </mxCell>
        <mxCell id="CYZ0r650wTVT2i2RkoJH-7" value="" style="edgeStyle=orthogonalEdgeStyle;rounded=0;orthogonalLoop=1;jettySize=auto;html=1;" edge="1" parent="1" source="CYZ0r650wTVT2i2RkoJH-1" target="CYZ0r650wTVT2i2RkoJH-6">
          <mxGeometry relative="1" as="geometry" />
        </mxCell>
        <mxCell id="CYZ0r650wTVT2i2RkoJH-28" value="" style="edgeStyle=orthogonalEdgeStyle;rounded=0;orthogonalLoop=1;jettySize=auto;html=1;" edge="1" parent="1" source="CYZ0r650wTVT2i2RkoJH-1" target="CYZ0r650wTVT2i2RkoJH-27">
          <mxGeometry relative="1" as="geometry" />
        </mxCell>
        <mxCell id="CYZ0r650wTVT2i2RkoJH-30" value="" style="edgeStyle=orthogonalEdgeStyle;rounded=0;orthogonalLoop=1;jettySize=auto;html=1;" edge="1" parent="1" source="CYZ0r650wTVT2i2RkoJH-1" target="CYZ0r650wTVT2i2RkoJH-29">
          <mxGeometry relative="1" as="geometry" />
        </mxCell>
        <mxCell id="CYZ0r650wTVT2i2RkoJH-32" value="" style="edgeStyle=orthogonalEdgeStyle;rounded=0;orthogonalLoop=1;jettySize=auto;html=1;" edge="1" parent="1" source="CYZ0r650wTVT2i2RkoJH-1" target="CYZ0r650wTVT2i2RkoJH-31">
          <mxGeometry relative="1" as="geometry" />
        </mxCell>
        <mxCell id="CYZ0r650wTVT2i2RkoJH-34" value="" style="edgeStyle=orthogonalEdgeStyle;rounded=0;orthogonalLoop=1;jettySize=auto;html=1;" edge="1" parent="1" source="CYZ0r650wTVT2i2RkoJH-1" target="CYZ0r650wTVT2i2RkoJH-33">
          <mxGeometry relative="1" as="geometry" />
        </mxCell>
        <mxCell id="CYZ0r650wTVT2i2RkoJH-1" value="Full Activity navigation website for SU students!" style="whiteSpace=wrap;html=1;aspect=fixed;" vertex="1" parent="1">
          <mxGeometry x="320" y="90" width="190" height="190" as="geometry" />
        </mxCell>
        <mxCell id="CYZ0r650wTVT2i2RkoJH-19" value="" style="edgeStyle=orthogonalEdgeStyle;rounded=0;orthogonalLoop=1;jettySize=auto;html=1;" edge="1" parent="1" source="CYZ0r650wTVT2i2RkoJH-2" target="CYZ0r650wTVT2i2RkoJH-18">
          <mxGeometry relative="1" as="geometry" />
        </mxCell>
        <mxCell id="CYZ0r650wTVT2i2RkoJH-23" value="" style="edgeStyle=orthogonalEdgeStyle;rounded=0;orthogonalLoop=1;jettySize=auto;html=1;" edge="1" parent="1" source="CYZ0r650wTVT2i2RkoJH-2" target="CYZ0r650wTVT2i2RkoJH-22">
          <mxGeometry relative="1" as="geometry" />
        </mxCell>
        <mxCell id="CYZ0r650wTVT2i2RkoJH-2" value="On Campus&lt;div&gt;&lt;br&gt;&lt;/div&gt;" style="whiteSpace=wrap;html=1;" vertex="1" parent="1">
          <mxGeometry x="90" y="400" width="120" height="60" as="geometry" />
        </mxCell>
        <mxCell id="CYZ0r650wTVT2i2RkoJH-17" value="" style="edgeStyle=orthogonalEdgeStyle;rounded=0;orthogonalLoop=1;jettySize=auto;html=1;" edge="1" parent="1" source="CYZ0r650wTVT2i2RkoJH-4" target="CYZ0r650wTVT2i2RkoJH-16">
          <mxGeometry relative="1" as="geometry" />
        </mxCell>
        <mxCell id="CYZ0r650wTVT2i2RkoJH-21" value="" style="edgeStyle=orthogonalEdgeStyle;rounded=0;orthogonalLoop=1;jettySize=auto;html=1;" edge="1" parent="1" source="CYZ0r650wTVT2i2RkoJH-4" target="CYZ0r650wTVT2i2RkoJH-20">
          <mxGeometry relative="1" as="geometry" />
        </mxCell>
        <mxCell id="CYZ0r650wTVT2i2RkoJH-4" value="Off Campus" style="whiteSpace=wrap;html=1;" vertex="1" parent="1">
          <mxGeometry x="640" y="400" width="120" height="60" as="geometry" />
        </mxCell>
        <mxCell id="CYZ0r650wTVT2i2RkoJH-9" value="" style="edgeStyle=orthogonalEdgeStyle;rounded=0;orthogonalLoop=1;jettySize=auto;html=1;" edge="1" parent="1" source="CYZ0r650wTVT2i2RkoJH-6" target="CYZ0r650wTVT2i2RkoJH-8">
          <mxGeometry relative="1" as="geometry" />
        </mxCell>
        <mxCell id="CYZ0r650wTVT2i2RkoJH-10" value="" style="edgeStyle=orthogonalEdgeStyle;rounded=0;orthogonalLoop=1;jettySize=auto;html=1;" edge="1" parent="1" source="CYZ0r650wTVT2i2RkoJH-6" target="CYZ0r650wTVT2i2RkoJH-8">
          <mxGeometry relative="1" as="geometry" />
        </mxCell>
        <mxCell id="CYZ0r650wTVT2i2RkoJH-12" value="" style="edgeStyle=orthogonalEdgeStyle;rounded=0;orthogonalLoop=1;jettySize=auto;html=1;" edge="1" parent="1" source="CYZ0r650wTVT2i2RkoJH-6" target="CYZ0r650wTVT2i2RkoJH-11">
          <mxGeometry relative="1" as="geometry" />
        </mxCell>
        <mxCell id="CYZ0r650wTVT2i2RkoJH-13" value="" style="edgeStyle=orthogonalEdgeStyle;rounded=0;orthogonalLoop=1;jettySize=auto;html=1;" edge="1" parent="1" source="CYZ0r650wTVT2i2RkoJH-6" target="CYZ0r650wTVT2i2RkoJH-11">
          <mxGeometry relative="1" as="geometry" />
        </mxCell>
        <mxCell id="CYZ0r650wTVT2i2RkoJH-15" value="" style="edgeStyle=orthogonalEdgeStyle;rounded=0;orthogonalLoop=1;jettySize=auto;html=1;" edge="1" parent="1" source="CYZ0r650wTVT2i2RkoJH-6" target="CYZ0r650wTVT2i2RkoJH-14">
          <mxGeometry relative="1" as="geometry" />
        </mxCell>
        <mxCell id="CYZ0r650wTVT2i2RkoJH-24" value="" style="edgeStyle=orthogonalEdgeStyle;rounded=0;orthogonalLoop=1;jettySize=auto;html=1;" edge="1" parent="1" source="CYZ0r650wTVT2i2RkoJH-6" target="CYZ0r650wTVT2i2RkoJH-11">
          <mxGeometry relative="1" as="geometry" />
        </mxCell>
        <mxCell id="CYZ0r650wTVT2i2RkoJH-26" value="" style="edgeStyle=orthogonalEdgeStyle;rounded=0;orthogonalLoop=1;jettySize=auto;html=1;" edge="1" parent="1" target="CYZ0r650wTVT2i2RkoJH-25">
          <mxGeometry relative="1" as="geometry">
            <mxPoint x="365" y="450" as="sourcePoint" />
          </mxGeometry>
        </mxCell>
        <mxCell id="CYZ0r650wTVT2i2RkoJH-6" value="Core" style="whiteSpace=wrap;html=1;" vertex="1" parent="1">
          <mxGeometry x="355" y="400" width="120" height="60" as="geometry" />
        </mxCell>
        <mxCell id="CYZ0r650wTVT2i2RkoJH-8" value="Activity List" style="whiteSpace=wrap;html=1;" vertex="1" parent="1">
          <mxGeometry x="230" y="540" width="120" height="60" as="geometry" />
        </mxCell>
        <mxCell id="CYZ0r650wTVT2i2RkoJH-11" value="Time Date start end and Location Display" style="whiteSpace=wrap;html=1;" vertex="1" parent="1">
          <mxGeometry x="355" y="540" width="120" height="60" as="geometry" />
        </mxCell>
        <mxCell id="CYZ0r650wTVT2i2RkoJH-14" value="Description and Cost" style="whiteSpace=wrap;html=1;" vertex="1" parent="1">
          <mxGeometry x="480" y="540" width="120" height="60" as="geometry" />
        </mxCell>
        <mxCell id="CYZ0r650wTVT2i2RkoJH-16" value="Suggest Uber cost, and bike cost" style="whiteSpace=wrap;html=1;" vertex="1" parent="1">
          <mxGeometry x="640" y="540" width="120" height="60" as="geometry" />
        </mxCell>
        <mxCell id="CYZ0r650wTVT2i2RkoJH-18" value="Available clubs and orgs to join" style="whiteSpace=wrap;html=1;" vertex="1" parent="1">
          <mxGeometry x="90" y="540" width="120" height="60" as="geometry" />
        </mxCell>
        <mxCell id="CYZ0r650wTVT2i2RkoJH-20" value="Age restriction limit" style="whiteSpace=wrap;html=1;" vertex="1" parent="1">
          <mxGeometry x="840" y="400" width="120" height="60" as="geometry" />
        </mxCell>
        <mxCell id="CYZ0r650wTVT2i2RkoJH-22" value="Most popular resources and activiries" style="whiteSpace=wrap;html=1;" vertex="1" parent="1">
          <mxGeometry x="-110" y="400" width="120" height="60" as="geometry" />
        </mxCell>
        <mxCell id="CYZ0r650wTVT2i2RkoJH-25" value="be able to filter actiivities and radius, and cost" style="whiteSpace=wrap;html=1;" vertex="1" parent="1">
          <mxGeometry x="280" y="640" width="120" height="60" as="geometry" />
        </mxCell>
        <mxCell id="CYZ0r650wTVT2i2RkoJH-27" value="chatgpt suggestions for the lazy!" style="whiteSpace=wrap;html=1;" vertex="1" parent="1">
          <mxGeometry x="650" y="70" width="120" height="60" as="geometry" />
        </mxCell>
        <mxCell id="CYZ0r650wTVT2i2RkoJH-29" value="create your own profile to login" style="whiteSpace=wrap;html=1;" vertex="1" parent="1">
          <mxGeometry x="60" y="70" width="120" height="60" as="geometry" />
        </mxCell>
        <mxCell id="CYZ0r650wTVT2i2RkoJH-31" value="mobile and accessibility friendly" style="whiteSpace=wrap;html=1;" vertex="1" parent="1">
          <mxGeometry x="355" y="-30" width="120" height="60" as="geometry" />
        </mxCell>
        <mxCell id="CYZ0r650wTVT2i2RkoJH-33" value="time to walk/drive/etc" style="whiteSpace=wrap;html=1;" vertex="1" parent="1">
          <mxGeometry x="520" y="310" width="120" height="60" as="geometry" />
        </mxCell>
      </root>
    </mxGraphModel>
  </diagram>
</mxfile>
